<svg version="1.2" xmlns="http://www.w3.org/2000/svg" viewBox="0 0 447 191" width="447" height="191">
	<title>shape-2-soft-light-svg</title>
	<defs>
		<clipPath clipPathUnits="userSpaceOnUse" id="cp1">
			<path d="m0 0h447v191h-447z"/>
		</clipPath>
	</defs>
	<style>
		.s0 { opacity: .9;fill: #dbe9e5 } 
	</style>
	<g id="Clip-Path" clip-path="url(#cp1)">
		<g id="Layer">
			<path id="Layer" class="s0" d="m249.6 310.7c-12.7-1.3-25.6-1.4-38-4.2-48.4-11.1-88.1-36.8-123.1-71.9-15.8-15.8-36.1-27.1-54.4-40.3-25.7-18.4-54.4-33.5-68.4-64.6-2.9-6.6-9-11.7-13.7-17.4-15.4-18.9-14.7-34.4 2.6-51.8 7.9-8 15.5-16.3 23.8-23.9 2.6-2.4 7-2.7 9.8-5.9 12.5-4.2 24.8-9.7 37.6-12.3 28.5-5.8 57.4-9.9 86.1-15.2 37.7-6.9 73 3.2 107.1 16.9 27.8 11.2 53.6 28.1 82 37.2 27.4 8.9 49.5 24.8 70.1 42.5 18.7 16.1 33.6 36.7 49.5 55.8 5.3 6.4 8.5 14.6 13 21.7 12.7 19.8 7.1 38.5-2.2 57.6-8 16.3-19.5 29.6-35.5 37.1-8.8 4-20.5 1-30 3.9-19.3 5.9-37.9 14.2-57.1 20.4-15.7 5.1-31.8 8.9-47.8 12.7-3.5 0.8-7.5-0.7-11.2-1.2z"/>
		</g>
	</g>
</svg>