<svg version="1.2" xmlns="http://www.w3.org/2000/svg" viewBox="0 0 570 211" width="570" height="211">
	<title>shape-3-soft-light-svg</title>
	<defs>
		<clipPath clipPathUnits="userSpaceOnUse" id="cp1">
			<path d="m0 0h570v211h-570z"/>
		</clipPath>
	</defs>
	<style>
		.s0 { opacity: .9;fill: #dbe9e5 } 
	</style>
	<g id="Clip-Path" clip-path="url(#cp1)">
		<g id="Layer">
			<path id="Layer" class="s0" d="m537.6-874.4c0.5-9.9 6.1-14.5 15.2-16.8 15.5 26.4 24.6 56 26.7 86.6 4.2 43.1 9.9 86.1 12.5 129.3 2 32.8 0.3 65.9-0.1 98.8q-0.3 23.5-2.1 47c-1.3 20.3 1.6 40.7 8.6 59.9 4.1 11.7 2.1 23.8 4.8 35.6 10.2 44.8 14.3 90.8 12.3 136.8-0.8 20.1-4.3 40.1-7 60.1-1 7.6-4.2 14.8 1 22.5 0.9 2.2 1.3 4.5 1.1 6.9-0.2 2.4-1.1 4.6-2.5 6.6-3.1 6.5-7 13-1.7 20.5 1 1.5 0 5.4-1.3 7.3-10.4 14.9-9.9 32.8-13.6 49.4-12.1 55.2-33.6 108-63.4 156-17.8 30.7-41.9 57.3-70.6 78.1-13.5 9.2-21.3 24.2-31.6 36.7-15.8 19.2-37.9 31.1-53.9 49.8-1.4 1.6-3.2 2.9-5.1 3.7-1.9 0.9-4 1.3-6.2 1.3-12 0-23.9 2.7-34.7 8-1.8 0.9-4.7 1.8-6.1 1-22.4-12.8-46.3 6.6-69.1-3.7-5.8-2.7-13.3-1.9-19.3-5.5-4.3-2.1-9.2-2.5-13.7-1.1-15.5 4-32 2.5-46.5-4.3-14.5-6.8-26.1-18.5-32.9-32.9-21.7-44.2-38.8-90.4-51-138-5.1-20.3-11.8-40.1-13.8-61-0.5-4.2-2.4-8.1-5.5-11.1-19.5-19.5-25.5-45.3-31.7-70.6-9.6-42.3-14.3-85.6-14-129.1-0.2-32.3-5.3-64.6-5.8-97-2.1-67.4 1.4-134.9 10.3-201.8 10.1-66.7 25.7-132.5 46.7-196.7 7.4-23.4 21-43.8 31.9-65.6 15.4-30.6 31.3-61 44.3-92.6 8.9-21.2 23.3-38.2 35.6-56.8 9-13.5 21.9-23.3 34.4-33.7 12-9.5 22.9-20.4 32.4-32.4 12.5-15 28.6-26.5 46.8-33.6 18.5-8.1 37.5-15.3 59.6-15.2 29-0.1 57.7 6.8 83.5 20 7.5 3.6 15.3 6.6 23.4 8.9 7.8 2.5 15.7 5.6 16.4 16.4 0.3 5.3 5.6 8.4 8.9 12.5 10.8 13.2 22.2 25.5 27.7 42.8 7.7 21.1 13.5 42.9 17.4 65 0.3 2.6-0.2 5.1-1.3 7.4-4.5 11-4.4 11.3 3 24.6z"/>
		</g>
	</g>
</svg>