<svg version="1.2" xmlns="http://www.w3.org/2000/svg" viewBox="0 0 210 200" width="210" height="200">
	<title>shape-1-soft-light-svg</title>
	<defs>
		<clipPath clipPathUnits="userSpaceOnUse" id="cp1">
			<path d="m0 0h210v199.47h-210z"/>
		</clipPath>
	</defs>
	<style>
		.s0 { opacity: .9;fill: #dbe9e5 } 
		.s1 { opacity: .9;fill-opacity: 1;fill: #dbe9e5 } 
	</style>
	<g id="Clip-Path" clip-path="url(#cp1)">
		<g id="Layer">
			<path id="Layer" class="s0" d="m83.8 93.1c-5.7-0.5-11.6-0.1-17-1.6-7.8-2.2-10-13.1-3.1-18.7 7.3-6 15.6-10.9 23.8-15.5 2.2-1.3 6.2-0.8 8.6 0.4 1.1 0.6 0.7 5 0.1 7.4-0.7 2.3-2 4.5-3.6 6.3-3.4 4-6.3 7.8-3.7 13.7 1.6 3.9 0.6 7.6-5.1 8z"/>
			<path id="Layer" class="s0" d="m71.5 0c2.8 0.6 5.8 0.8 8.3 1.9 5.1 2.2 6 5.8 2.6 10.3-4.9 6.2-8.5 13.3-10.6 20.9-0.5 1.4-1.3 2.7-2.4 3.8-1.1 1.1-2.4 1.9-3.8 2.4-1.7 0.5-4.8-2.2-6.6-4.2q-3-3.6-5.1-7.8c-5.1-8.7-5-9.3 1.9-16.8 9.2-10 9.2-10 15.7-10.5z"/>
			<path id="Layer" class="s0" d="m64.7 117.1c2.9 2.2 7.3 4 8.8 7.1 1.3 2.6-0.4 6.9-1.4 10.3-1 3.4-6.6 5.3-3.3 10.4 0.3 0.4-2 3.4-3.6 4.2-9.2 4.4-15.8-1.7-21-7.3-2.9-3-2.5-9.2-3.2-14q0.1-1 0.7-1.8 0.5-0.9 1.4-1.3c6.6-2.5 13.3-4.8 21.6-7.6z"/>
			<path id="Layer" class="s0" d="m109.2 179.9c-0.7 5.9-2.8 9.4-9.3 10.6-4.5 0.7-8.4 4.7-13.5 2.1-1.5-0.8-3.4-1-4.7-2-1.3-1-2-3.5-3.2-3.6-7.4-1-8.7-7.8-11.8-12.5-2.9-4.6-0.2-8.1 5.3-8.5 3-0.1 6.2-1.4 9.1-1.1 4 0.5 10.1 1.1 11.2 3.5 2.8 6.5 8 7.8 13.5 9.6q1.8 0.8 3.4 1.9z"/>
			<path id="Layer" class="s0" d="m132.9 17.3c2 1.2 4.7 1.9 5.3 3.5 0.5 1.3-1.4 3.5-2.1 5.4q-2.3 6.7-4.5 13.4c-1.9 5.8-3.4 11.7-5.7 17.2-1.5 3.5-4.6 5-8 1.9-3-2.6-6-5.3-8.7-8.2-4.5-4.6-3-17.3 3.3-19.5 5.9-2.1 9.3-6.4 13.7-9.9q3.2-2.1 6.7-3.8z"/>
			<path id="Layer" class="s0" d="m39.8 103.7c-2.7 4.5-4.6 8.1-6.9 11.6q-2.2 3.4-5.2 6.1c-2.1 2-4.9 5.4-6.8 5-3.5-0.9-6.6-3.1-8.6-6.1-2.6-4.4-7.7-8.3-4.1-15 3.1-5.6 19.1-14.7 24.5-11.6 3.1 1.7 4.6 6.4 7.1 10z"/>
			<path id="Layer" class="s0" d="m96.9 133.7c0.9-5.4 1-9.3 2.2-12.7 1.4-3.9 5-4.3 8.3-2.5 2.1 1.3 3.9 2.9 5.5 4.8 2.8 3.2 5.3 6 10.5 5.5 2.3-0.2 5.8 3 7.2 5.6 0.8 1.4-1.2 5.2-2.9 6.9-8.8 8.2-19.4 10.8-26.2 1.4q-2.7-4.3-4.6-9z"/>
			<path id="Layer" class="s0" d="m169.6 144c-2.5 0.6-5.7 0.4-7.1 1.9-3.5 3.6-6.2 3.5-9.5 0.1-3.7-3.7-3.5-7.6-1-11.5 1.9-3 4.5-5.5 6.5-8.4 5.5-8.2 13-10.4 21.3-5.8 1.1 0.6 2.3 2.8 2 3.7-1.5 4.4-3.6 8.6-5.6 12.9-1.5 3.1-3.2 6.2-4.8 9.3z"/>
			<path id="Layer" class="s0" d="m27.5 162.5c0.2 6.3-8 15.2-14.1 15.4-4.8 0.1-13-9.5-13.4-15.7-0.4-7.3 4.2-12.2 11.6-12.5 8.1-0.3 15.6 5.8 15.9 12.8z"/>
			<path id="Layer" class="s0" d="m119.1 81.7c6.1 1.6 11.9 2.7 17.4 4.7 2.4 0.9 5.5 3.2 5.8 5.2 0.2 2.3-2.3 4.9-3.7 7.3-1 1.7-2.3 3.1-3.2 4.8-3.2 6.6-10.2 8.2-15.2 2.8-8.8-9.1-10.3-14.3-1.1-24.8z"/>
			<path id="Layer" class="s1" d="m161.7 186.8c-7.5 0.8-10.9-4.8-12.7-9.4-1.3-3.2 1.6-8.3 3.4-12.2 0.6-1.3 3.7-2.2 5.4-2 5.3 0.7 10.5 1.9 15.6 3.6 5.9 2.1 6.4 7 1.9 11.1-4.2 3.8-6.7 10.2-13.6 8.9z"/>
			<path id="Layer" class="s0" d="m179.4 80.1c-2.6 1.1-5.9 3.8-7.6 3.1-7.3-3.4-16.3-2.9-21.5-10.7-3-4.6-2.7-7.4 2.6-9.5 0.8-0.3 1.9-0.3 2.4-0.9 3.7-3.6 7.4-6.1 11.9-1.1q4.4 4.5 8.3 9.6c1.6 2.3 2.2 5.2 3.9 9.5z"/>
			<path id="Layer" class="s0" d="m29.7 66.3c0.3-11.3 4.8-18.4 11.1-20.4 3.9-1.2 6.3 0.3 5.6 3.9-1.4 6.9-3.4 13.7-6 20.3-0.5 1.3-5.2 2.3-6.8 1.4-2.2-1.2-3.4-4.4-3.9-5.2z"/>
			<path id="Layer" class="s0" d="m209.8 186.8c0.2 6.3-4.2 12.8-8 12.7-4.7-0.2-10.5-5.4-10.5-9.4-0.1-6.9 4.2-11.4 11.1-11.4 6-0.1 8.3 3.1 7.4 8.1z"/>
		</g>
	</g>
</svg>